<svg xmlns="http://www.w3.org/2000/svg" style="display:none">
  
  <symbol id="icon-mi-realidad" viewBox="0 0 24 24" fill="none" stroke="currentColor" stroke-width="1.8" stroke-linecap="round" stroke-linejoin="round">
    <circle cx="12" cy="8" r="4"></circle>
    <path d="M4 20c0-4 3.6-7 8-7s8 3 8 7"></path>
  </symbol>

  
  <symbol id="icon-dashboard" viewBox="0 0 24 24" fill="none" stroke="currentColor" stroke-width="1.8" stroke-linecap="round" stroke-linejoin="round">
    <rect x="3" y="12" width="4" height="8" rx="1"></rect>
    <rect x="10" y="7" width="4" height="13" rx="1"></rect>
    <rect x="17" y="3" width="4" height="17" rx="1"></rect>
  </symbol>

  
  <symbol id="icon-brujula" viewBox="0 0 24 24" fill="none" stroke="currentColor" stroke-width="1.8" stroke-linecap="round" stroke-linejoin="round">
    <circle cx="12" cy="12" r="9"></circle>
    <path d="M16.2 7.8l-2.6 5.4-5.4 2.6 2.6-5.4 5.4-2.6z" fill="currentColor" stroke="none"></path>
  </symbol>

  
  <symbol id="icon-ideas" viewBox="0 0 24 24" fill="none" stroke="currentColor" stroke-width="1.8" stroke-linecap="round" stroke-linejoin="round">
    <path d="M12 2c-3.5 0-6 3-6 6.5 0 2.5 1.2 4.5 3 5.5v2h6v-2c1.8-1 3-3 3-5.5C18 5 15.5 2 12 2z"></path>
    <path d="M9 19h6M10 22h4"></path>
  </symbol>

  
  <symbol id="icon-motor-ai" viewBox="0 0 24 24" fill="none" stroke="currentColor" stroke-width="1.8" stroke-linecap="round" stroke-linejoin="round">
    <circle cx="12" cy="12" r="3"></circle>
    <path d="M12 2v3M12 19v3M2 12h3M19 12h3M5.6 5.6l2.1 2.1M16.3 16.3l2.1 2.1M5.6 18.4l2.1-2.1M16.3 7.7l2.1-2.1"></path>
  </symbol>

  
  <symbol id="icon-check" viewBox="0 0 10 8" fill="none">
    <path d="M1 4L3.5 6.5L9 1" stroke="white" stroke-width="1.5" stroke-linecap="round" stroke-linejoin="round"></path>
  </symbol>

  
  <symbol id="icon-plus" viewBox="0 0 24 24" fill="none" stroke="currentColor" stroke-width="1.8" stroke-linecap="round" stroke-linejoin="round">
    <path d="M12 5v14M5 12h14"></path>
  </symbol>

  
  <symbol id="icon-close" viewBox="0 0 24 24" fill="none" stroke="currentColor" stroke-width="1.8" stroke-linecap="round" stroke-linejoin="round">
    <path d="M18 6L6 18M6 6l12 12"></path>
  </symbol>
</svg>